<svg viewBox="0 0 1024 1024" xmlns="http://www.w3.org/2000/svg"><path d="m723 620.5c-56.2-48.9-129.6-78.5-210-78.5s-153.8 29.6-210.1 78.6a8.1 8.1 0 0 0 -.8 11.2l36 42.9c2.9 3.4 8 3.8 11.4.9 43.6-38.4 100.8-61.6 163.5-61.6s119.9 23.2 163.5 61.5c3.4 2.9 8.5 2.5 11.4-.9l36-42.9c2.8-3.3 2.4-8.3-.9-11.2zm117.4-140.1c-88.7-73.9-202.8-118.4-327.4-118.4s-238.7 44.5-327.5 118.4a8.05 8.05 0 0 0 -1 11.3l36 42.9c2.8 3.4 7.9 3.8 11.2 1 76.3-63.4 174.4-101.6 281.3-101.6s205 38.2 281.2 101.6c3.4 2.8 8.4 2.4 11.2-1l36-42.9c2.8-3.4 2.4-8.5-1-11.3zm116.7-139c-121.4-99.6-276.8-159.4-446.1-159.4-168.2 0-322.6 59-443.7 157.4a8 8 0 0 0 -1.1 11.4l36 42.9c2.8 3.3 7.8 3.8 11.1 1.1 108.7-88.1 247-140.8 397.7-140.8 151.8 0 291 53.5 400 142.7 3.4 2.8 8.4 2.3 11.2-1.1l36-42.9c2.9-3.4 2.4-8.5-1.1-11.3zm-509.1 436.6a64 64 0 1 0 128 0 64 64 0 1 0 -128 0z"/></svg>